<?xml version="1.0" encoding="UTF-8"?>
<svg width="19px" height="16px" viewBox="0 0 19 16" version="1.1" xmlns="http://www.w3.org/2000/svg" xmlns:xlink="http://www.w3.org/1999/xlink">
    <!-- Generator: Sketch 52.6 (67491) - http://www.bohemiancoding.com/sketch -->
    <title>Group 8</title>
    <desc>Created with Sketch.</desc>
    <defs>
        <polygon id="path-1" points="0.000122348485 0.124252033 8.78719053 0.124252033 8.78719053 15.969697 0.000122348485 15.969697"></polygon>
    </defs>
    <g id="Welcome" stroke="none" stroke-width="1" fill="none" fill-rule="evenodd">
        <g id="04-copy-29" transform="translate(-325.000000, -66.000000)">
            <g id="Group-8" transform="translate(325.000000, 66.000000)">
                <g id="Group">
                    <g id="Group-6">
                        <g id="Group-3">
                            <mask id="mask-2" fill="white">
                                <use xlink:href="#path-1"></use>
                            </mask>
                            <g id="Clip-2"></g>
                            <path d="M8.75456427,0.12405728 L1.73787866,5.5416796 L0.655910227,5.5416796 C0.293758712,5.5416796 0.000122348485,5.82212306 0.000122348485,6.16800333 L0.000122348485,9.92594568 C0.000122348485,10.2718259 0.293758712,10.5518799 0.655910227,10.5518799 L1.73787866,10.5518799 L8.78719053,15.9698917 L8.75456427,0.12405728 Z" id="Fill-1" fill="#FFFFFF" mask="url(#mask-2)"></path>
                        </g>
                        <path d="M18.0824487,4.50954564 L15.4219999,7.02584387 C15.2821746,7.15848902 15.0552724,7.15848902 14.9154471,7.02584387 L12.0013033,4.26999246 C11.7911467,4.07161867 11.4507934,4.07161867 11.2406368,4.26999246 C11.0308988,4.46836625 11.0308988,4.7902782 11.2406368,4.98904794 L14.1547806,7.74489935 C14.2950246,7.8775445 14.2950246,8.09215247 14.1547806,8.22440166 L11.2406368,10.980649 C11.0308988,11.1790228 11.0308988,11.5013307 11.2406368,11.6997045 C11.4507934,11.8980783 11.7911467,11.8980783 12.0013033,11.6997045 L14.9154471,8.94345714 C15.0552724,8.81120795 15.2821746,8.81120795 15.4219999,8.94345714 L18.0824487,11.4601513 C18.2926053,11.6585251 18.6329585,11.6585251 18.8426965,11.4601513 C19.0524345,11.2613816 19.0524345,10.9394696 18.8426965,10.7410958 L16.1822477,8.22440166 C16.0420038,8.09215247 16.0420038,7.8775445 16.1822477,7.74489935 L18.8426965,5.22860112 C19.0524345,5.03022733 19.0524345,4.70791942 18.8426965,4.50954564 C18.6329585,4.31117185 18.2926053,4.31117185 18.0824487,4.50954564" id="Fill-4" fill="#FFFFFF"></path>
                    </g>
                </g>
            </g>
        </g>
    </g>
</svg>