<?xml version="1.0" encoding="UTF-8"?>
<svg width="16px" height="16px" viewBox="0 0 16 16" version="1.1" xmlns="http://www.w3.org/2000/svg" xmlns:xlink="http://www.w3.org/1999/xlink">
    <!-- Generator: Sketch 52.6 (67491) - http://www.bohemiancoding.com/sketch -->
    <title>Group 3</title>
    <desc>Created with Sketch.</desc>
    <defs>
        <polygon id="path-1" points="0 0 16 0 16 16 0 16"></polygon>
    </defs>
    <g id="Welcome" stroke="none" stroke-width="1" fill="none" fill-rule="evenodd">
        <g id="Desktop-Copy-9" transform="translate(-889.000000, -42.000000)">
            <g id="Group-3" transform="translate(889.000000, 42.000000)">
                <mask id="mask-2" fill="white">
                    <use xlink:href="#path-1"></use>
                </mask>
                <g id="Clip-2"></g>
                <path d="M12.9349533,3.02803738 C13.1218692,3.21495327 13.2340187,3.43925234 13.2340187,3.70093458 C13.2340187,3.96261682 13.1218692,4.18691589 12.9349533,4.37383178 C12.7480374,4.56074766 12.5233645,4.6728972 12.2616822,4.6728972 C12.0003738,4.6728972 11.7757009,4.56074766 11.588785,4.37383178 C11.4018692,4.18691589 11.2900935,3.96261682 11.2900935,3.70093458 C11.2900935,3.43925234 11.4018692,3.21495327 11.588785,3.02803738 C11.7757009,2.8411215 12.0003738,2.72897196 12.2616822,2.72897196 C12.5233645,2.72897196 12.7480374,2.8411215 12.9349533,3.02803738 Z M9.86953271,9.86915888 C10.3925234,9.34579439 10.6542056,8.71028037 10.6542056,8 C10.6542056,7.28971963 10.3925234,6.61682243 9.86953271,6.09345794 C9.34579439,5.57009346 8.71028037,5.30841121 7.96299065,5.30841121 C7.2153271,5.30841121 6.57981308,5.57009346 6.0564486,6.09345794 C5.53308411,6.61682243 5.27140187,7.25233645 5.27140187,8 C5.27140187,8.74766355 5.53308411,9.38317757 6.0564486,9.86915888 C6.57981308,10.3925234 7.2153271,10.6542056 7.96299065,10.6542056 C8.71028037,10.6542056 9.34579439,10.3925234 9.86953271,9.86915888 Z M10.8788785,5.08411215 C11.6639252,5.86915888 12.0747664,6.8411215 12.0747664,8 C12.0747664,9.1588785 11.6639252,10.0934579 10.8788785,10.9158879 C10.0934579,11.7009346 9.12186916,12.1121495 7.96299065,12.1121495 C6.80411215,12.1121495 5.86953271,11.7009346 5.04672897,10.9158879 C4.26205607,10.1308411 3.85084112,9.1588785 3.85084112,8 C3.85084112,6.8411215 4.26205607,5.90654206 5.04672897,5.08411215 C5.83214953,4.29906542 6.80411215,3.88785047 7.96299065,3.88785047 C9.12186916,3.88785047 10.0934579,4.26168224 10.8788785,5.08411215 Z M8.78504673,1.42056075 L8.00037383,1.42056075 L7.2153271,1.42056075 L6.13121495,1.42056075 C5.86953271,1.42056075 5.53308411,1.42056075 5.12186916,1.45794393 C4.71065421,1.45794393 4.33682243,1.4953271 4.03775701,1.57009346 C3.73831776,1.60747664 3.47700935,1.68224299 3.29009346,1.75700935 C2.95364486,1.90654206 2.65457944,2.09345794 2.35551402,2.35514019 C2.09383178,2.61682243 1.90691589,2.91588785 1.75738318,3.28971963 C1.68224299,3.47663551 1.60785047,3.73831776 1.57046729,4.03738318 C1.53308411,4.3364486 1.4953271,4.6728972 1.45831776,5.12149533 C1.45831776,5.53271028 1.42093458,5.86915888 1.42093458,6.13084112 L1.42093458,7.21495327 L1.42093458,8 L1.42093458,8.78504673 L1.42093458,9.86915888 C1.42093458,10.1308411 1.42093458,10.4672897 1.45831776,10.8785047 C1.45831776,11.2897196 1.4953271,11.6635514 1.57046729,11.9626168 C1.64523364,12.2616822 1.68224299,12.5233645 1.75738318,12.7102804 C1.90691589,13.046729 2.09383178,13.3457944 2.35551402,13.6448598 C2.61682243,13.9065421 2.91626168,14.0934579 3.29009346,14.2429907 C3.47700935,14.317757 3.73831776,14.3925234 4.03775701,14.4299065 C4.33682243,14.4672897 4.6728972,14.5046729 5.12186916,14.5420561 C5.57046729,14.5794393 5.86953271,14.5794393 6.13121495,14.5794393 L7.2153271,14.5794393 L8.00037383,14.5794393 L8.78504673,14.5794393 L9.86953271,14.5794393 C10.131215,14.5794393 10.4672897,14.5794393 10.8788785,14.5420561 C11.2900935,14.5420561 11.6639252,14.5046729 11.9626168,14.4299065 C12.2616822,14.3925234 12.5233645,14.317757 12.7102804,14.2429907 C13.0471028,14.0934579 13.3461682,13.9065421 13.6448598,13.6448598 C13.9069159,13.3831776 14.0938318,13.0841121 14.2433645,12.7102804 C14.317757,12.5233645 14.3925234,12.2616822 14.4302804,11.9626168 C14.4676636,11.6635514 14.5046729,11.3271028 14.5424299,10.8785047 C14.5424299,10.4672897 14.5794393,10.1308411 14.5794393,9.86915888 L14.5794393,8.78504673 L14.5794393,8 L14.5794393,7.21495327 L14.5794393,6.13084112 C14.5794393,5.86915888 14.5794393,5.53271028 14.5424299,5.12149533 C14.5424299,4.71028037 14.5046729,4.3364486 14.4302804,4.03738318 C14.3925234,3.73831776 14.317757,3.47663551 14.2433645,3.28971963 C14.0938318,2.95327103 13.9069159,2.65420561 13.6448598,2.35514019 C13.3831776,2.09345794 13.0841121,1.90654206 12.7102804,1.75700935 C12.5233645,1.68224299 12.2616822,1.60747664 11.9626168,1.57009346 C11.6639252,1.53271028 11.3271028,1.4953271 10.8788785,1.45794393 C10.4672897,1.45794393 10.131215,1.42056075 9.86953271,1.42056075 L8.78504673,1.42056075 Z M16,8 C16,9.60747664 16,10.6915888 15.9629907,11.2897196 C15.8878505,12.7476636 15.4770093,13.8691589 14.6545794,14.6542056 C13.8317757,15.4392523 12.7480374,15.8878505 11.2900935,15.9626168 C10.6919626,16 9.57046729,16 8.00037383,16 C6.3928972,16 5.30878505,16 4.71065421,15.9626168 C3.25271028,15.8878505 2.13121495,15.4766355 1.34616822,14.6542056 C0.560747664,13.8691589 0.112523364,12.7476636 0.0377570093,11.2897196 C0,10.6915888 0,9.57009346 0,8 C0,6.42990654 0,5.30841121 0.0377570093,4.71028037 C0.112523364,3.25233645 0.523738318,2.13084112 1.34616822,1.34579439 C2.13121495,0.560747664 3.25271028,0.112149533 4.71065421,0.0373831776 C5.30878505,0 6.43028037,0 8.00037383,0 C9.60785047,0 10.6919626,0 11.2900935,0.0373831776 C12.7480374,0.112149533 13.8695327,0.523364486 14.6545794,1.34579439 C15.4392523,2.1682243 15.8878505,3.25233645 15.9629907,4.71028037 C15.9629907,5.30841121 16,6.39252336 16,8 Z" id="Fill-1" fill="#FFFFFF" mask="url(#mask-2)"></path>
            </g>
        </g>
    </g>
</svg>
