<?xml version="1.0" encoding="UTF-8"?>
<svg width="31px" height="44px" viewBox="0 0 31 44" version="1.1" xmlns="http://www.w3.org/2000/svg" xmlns:xlink="http://www.w3.org/1999/xlink">
    <!-- Generator: Sketch 52.6 (67491) - http://www.bohemiancoding.com/sketch -->
    <title>Group 8</title>
    <desc>Created with Sketch.</desc>
    <defs>
        <polygon id="path-1" points="0 0.0244086849 26.4387825 0.0244086849 26.4387825 31.9676464 0 31.9676464"></polygon>
        <polygon id="path-3" points="0.019049578 0.0163028064 26.4578023 0.0163028064 26.4578023 31.9238065 0.019049578 31.9238065"></polygon>
    </defs>
    <g id="Welcome" stroke="none" stroke-width="1" fill="none" fill-rule="evenodd">
        <g id="Desktop-Copy-9" transform="translate(-49.000000, -45.000000)">
            <g id="Group-8" transform="translate(49.000000, 45.000000)">
                <g id="Group-7">
                    <g id="Group-3" transform="translate(0.000000, 0.007328)">
                        <mask id="mask-2" fill="white">
                            <use xlink:href="#path-1"></use>
                        </mask>
                        <g id="Clip-2"></g>
                        <path d="M10.0428104,31.9676464 L11.2826047,29.7269584 C4.36383907,26.3811076 0.913770897,19.7087771 3.59288872,14.8533636 C3.86445357,14.360966 4.19223735,13.9038056 4.56879492,13.481532 C5.6535984,17.6984694 9.12457909,21.8058399 14.2488064,24.2839174 L15.4884352,22.0432294 C10.5432548,19.6517476 7.37193188,15.5610717 6.94229888,11.6489717 C7.57311554,11.3107131 8.25733853,11.0212642 9.00462994,10.7984348 C12.6477418,9.71242001 17.0174972,10.1925834 20.9938195,12.1155626 L22.2334484,9.87452413 C17.6252175,7.6460385 12.5045308,7.10734816 8.18503815,8.3952603 C7.83280129,8.50023929 7.49353549,8.6202881 7.16035814,8.74674078 C7.30952524,8.20543791 7.51868345,7.67713395 7.79875228,7.16963463 C8.85301423,5.25783826 10.7240554,3.85583514 13.2106259,3.1147058 C16.8537377,2.02872289 21.2234932,2.50872695 25.1998154,4.43189737 L26.4387825,2.19117747 C21.8310811,-0.0371488612 16.7114863,-0.57650827 12.3905046,0.711403877 C9.2076997,1.66054772 6.79041845,3.49406386 5.40079525,6.01289046 C4.65323912,7.36818669 4.27059309,8.82779284 4.21493669,10.3219035 C2.9509871,11.2391872 1.92683652,12.3695194 1.19493168,13.6965876 C-2.16486856,19.7877264 1.8043064,27.983447 10.0428104,31.9676464" id="Fill-1" fill="#FA5257" mask="url(#mask-2)"></path>
                    </g>
                    <g id="Group-6" transform="translate(4.533250, 12.114161)">
                        <mask id="mask-4" fill="white">
                            <use xlink:href="#path-3"></use>
                        </mask>
                        <g id="Clip-5"></g>
                        <path d="M16.4146246,0.0163028064 L15.1755251,2.25686341 C22.0944232,5.60280972 25.5437965,12.2751721 22.8652081,17.1309679 C22.595397,17.6198291 22.2705912,18.0744088 21.8974088,18.4940699 C20.8207122,14.2677657 17.3451321,10.1479378 12.2097206,7.6645078 L10.9700587,9.9050684 C15.9293021,12.3032727 19.1049597,16.4101335 19.5204304,20.3323969 C18.888224,20.6716431 18.2024127,20.9621752 17.4528051,21.1855144 C13.8102227,22.2713699 9.43993778,21.7913658 5.46374787,19.8683547 L4.22464843,22.1094251 C6.82458327,23.3664967 9.58774821,24.0858019 12.2784804,24.2430632 C14.3559334,24.3645776 16.3903039,24.1497769 18.2723969,23.5886889 C18.6215233,23.484602 18.957414,23.3655727 19.2876133,23.2405538 C19.1391411,23.7682205 18.9330933,24.2832707 18.6597747,24.7786632 C17.6054796,26.6899498 15.7339422,28.0924308 13.2479011,28.8337194 C9.6053187,29.9201165 5.23500072,29.4395708 1.25871153,27.5164004 L0.019049578,29.7576301 C2.61901751,31.0145424 5.38281115,31.7339431 8.07288157,31.8911089 C10.1504669,32.0121135 12.1853668,31.7979819 14.0674929,31.2367665 C17.2506949,30.2878775 19.6680754,28.4547437 21.0576986,25.9348976 C21.7993318,24.5905294 22.1827719,23.1434124 22.2430278,21.6617909 C23.506845,20.744539 24.5307309,19.6142705 25.2626357,18.2873616 C28.6229654,12.1962228 24.6534264,3.99983318 16.4146246,0.0163028064" id="Fill-4" fill="#FA5257" mask="url(#mask-4)"></path>
                    </g>
                </g>
            </g>
        </g>
    </g>
</svg>
